# xmcd
#
# Track frame offsets:
#   150
#   15213
#   26033
#   38424
#   50001
#   62035
#   73870
#   84076
#   97893
#   106179
#   120763
#   130824
#   147663
#   157883
#   172145
#   182619
#   194610
#   204666
#   218332
#   227980
#   241259
#   253905
#   267970
#   274824
#   284270
#
# Disc length: 3902 seconds
#
# Revision: 0
# Processed by: cddbd v1.5.2PL0 Copyright (c) Steve Scherf et al.
# Submitted via: GXTranscoder 2.0.1939
#
DISCID=5e0f3c19
DTITLE=Willie Nelson - The Country Collection
DYEAR=2008
DGENRE=Country
TTITLE0=Face Of A Fighter
TTITLE1=Blame It On The Times
TTITLE2=The Shelter Of Your Arms
TTITLE3=Some Other Time
TTITLE4=End Of Understanding
TTITLE5=Night Life
TTITLE6=Healing Hands Of Time
TTITLE7=No Tomorrow In Sight
TTITLE8=You Wouldn´t Cross The Street To Say Goodbye
TTITLE9=What Can You Do To Me Now?
TTITLE10=A New Way To Cry
TTITLE11=I Let My Mind Wander
TTITLE12=Pride Wins Again
TTITLE13=Rainy Day Blues
TTITLE14=Broken Promises
TTITLE15=Happiness Lives Next Door
TTITLE16=I Didn´t Sleep A Wink
TTITLE17=A Moment Isn´t Very Long
TTITLE18=Half A Man
TTITLE19=I Just Don´t Understand
TTITLE20=Any Old Arms Won´t Do
TTITLE21=So Much To Do
TTITLE22=Both Ends Of The Candle
TTITLE23=One Step Beyond
TTITLE24=Slow Down Old World
EXTD=
EXTT0=
EXTT1=
EXTT2=
EXTT3=
EXTT4=
EXTT5=
EXTT6=
EXTT7=
EXTT8=
EXTT9=
EXTT10=
EXTT11=
EXTT12=
EXTT13=
EXTT14=
EXTT15=
EXTT16=
EXTT17=
EXTT18=
EXTT19=
EXTT20=
EXTT21=
EXTT22=
EXTT23=
EXTT24=
PLAYORDER=
